<mxfile host="app.diagrams.net" modified="2023-04-26T13:50:15.358Z" agent="Mozilla/5.0 (X11; Ubuntu; Linux x86_64; rv:109.0) Gecko/20100101 Firefox/112.0" etag="uai20k5azIBI0ocqhwfJ" version="21.2.2" type="device">
  <diagram name="Page-1" id="KrFx6ZKLRJf2eRGShxez">
    <mxGraphModel dx="2284" dy="1940" grid="1" gridSize="10" guides="1" tooltips="1" connect="1" arrows="1" fold="1" page="1" pageScale="1" pageWidth="850" pageHeight="1100" math="0" shadow="0">
      <root>
        <mxCell id="0" />
        <mxCell id="1" parent="0" />
        <mxCell id="9olKmMyQ2nDWpgXh6pW5-28" value="" style="group" vertex="1" connectable="0" parent="1">
          <mxGeometry x="350" y="90" width="450" height="320" as="geometry" />
        </mxCell>
        <mxCell id="9olKmMyQ2nDWpgXh6pW5-26" value="" style="group" vertex="1" connectable="0" parent="9olKmMyQ2nDWpgXh6pW5-28">
          <mxGeometry width="450" height="320" as="geometry" />
        </mxCell>
        <mxCell id="9olKmMyQ2nDWpgXh6pW5-1" value="&lt;div&gt;&lt;br&gt;&lt;/div&gt;&lt;div&gt;&lt;br&gt;&lt;/div&gt;&lt;div&gt;&lt;br&gt;&lt;/div&gt;&lt;div&gt;&lt;br&gt;&lt;/div&gt;&lt;div&gt;&lt;br&gt;&lt;/div&gt;&lt;div&gt;&lt;br&gt;&lt;/div&gt;&lt;div&gt;&lt;br&gt;&lt;/div&gt;&lt;div&gt;Dataspace&lt;/div&gt;&lt;div&gt;&lt;br&gt;&lt;/div&gt;&lt;div&gt;&lt;br&gt;&lt;/div&gt;&lt;div&gt;&lt;br&gt;&lt;/div&gt;&lt;div&gt;&lt;br&gt;&lt;/div&gt;&lt;div&gt;&lt;br&gt;&lt;/div&gt;&lt;div&gt;&lt;br&gt;&lt;/div&gt;&lt;div&gt;&lt;br&gt;&lt;/div&gt;&lt;div&gt;&lt;br&gt;&lt;/div&gt;&lt;div&gt;&lt;br&gt;&lt;/div&gt;&lt;div&gt;&lt;br&gt;&lt;/div&gt;&lt;div&gt;&lt;br&gt;&lt;/div&gt;&lt;div&gt;&lt;br&gt;&lt;/div&gt;&lt;div&gt;&lt;br&gt;&lt;/div&gt;&lt;div&gt;&lt;br&gt;&lt;/div&gt;&lt;div&gt;&lt;br&gt;&lt;/div&gt;&lt;div&gt;&lt;br&gt;&lt;/div&gt;&lt;div&gt;&lt;br&gt;&lt;/div&gt;&lt;div&gt;&lt;br&gt;&lt;/div&gt;&lt;div&gt;&lt;br&gt;&lt;/div&gt;&lt;div&gt;&lt;br&gt;&lt;/div&gt;&lt;div&gt;&lt;br&gt;&lt;/div&gt;&lt;div&gt;&lt;br&gt;&lt;/div&gt;&lt;div&gt;&lt;br&gt;&lt;/div&gt;&lt;div&gt;&lt;br&gt;&lt;/div&gt;&lt;div&gt;&lt;br&gt;&lt;/div&gt;&lt;div&gt;&lt;br&gt;&lt;/div&gt;&lt;div&gt;&lt;br&gt;&lt;/div&gt;" style="rounded=0;whiteSpace=wrap;html=1;" vertex="1" parent="9olKmMyQ2nDWpgXh6pW5-26">
          <mxGeometry width="450" height="320" as="geometry" />
        </mxCell>
        <mxCell id="9olKmMyQ2nDWpgXh6pW5-2" value="Marketplace" style="rounded=1;whiteSpace=wrap;html=1;" vertex="1" parent="9olKmMyQ2nDWpgXh6pW5-26">
          <mxGeometry x="270" y="30" width="120" height="60" as="geometry" />
        </mxCell>
        <mxCell id="9olKmMyQ2nDWpgXh6pW5-3" value="Happy Pets Inc. " style="rounded=1;whiteSpace=wrap;html=1;" vertex="1" parent="9olKmMyQ2nDWpgXh6pW5-26">
          <mxGeometry x="55" y="220" width="120" height="60" as="geometry" />
        </mxCell>
        <mxCell id="9olKmMyQ2nDWpgXh6pW5-4" value="No Cheaper Inc." style="rounded=1;whiteSpace=wrap;html=1;" vertex="1" parent="9olKmMyQ2nDWpgXh6pW5-26">
          <mxGeometry x="55" y="30" width="120" height="60" as="geometry" />
        </mxCell>
        <mxCell id="9olKmMyQ2nDWpgXh6pW5-5" value="Packet Delivery Inc." style="rounded=1;whiteSpace=wrap;html=1;" vertex="1" parent="9olKmMyQ2nDWpgXh6pW5-26">
          <mxGeometry x="270" y="220" width="120" height="60" as="geometry" />
        </mxCell>
        <mxCell id="9olKmMyQ2nDWpgXh6pW5-7" value="" style="endArrow=none;dashed=1;html=1;dashPattern=1 3;strokeWidth=2;rounded=0;entryX=0.5;entryY=0;entryDx=0;entryDy=0;exitX=0;exitY=1;exitDx=0;exitDy=0;" edge="1" parent="9olKmMyQ2nDWpgXh6pW5-26" target="9olKmMyQ2nDWpgXh6pW5-3">
          <mxGeometry width="50" height="50" relative="1" as="geometry">
            <mxPoint x="189.09060755565451" y="178.43352548454914" as="sourcePoint" />
            <mxPoint x="20" y="470" as="targetPoint" />
          </mxGeometry>
        </mxCell>
        <mxCell id="9olKmMyQ2nDWpgXh6pW5-8" value="" style="endArrow=none;dashed=1;html=1;dashPattern=1 3;strokeWidth=2;rounded=0;entryX=0.558;entryY=1.017;entryDx=0;entryDy=0;entryPerimeter=0;exitX=0;exitY=0;exitDx=0;exitDy=0;" edge="1" parent="9olKmMyQ2nDWpgXh6pW5-26" target="9olKmMyQ2nDWpgXh6pW5-4">
          <mxGeometry width="50" height="50" relative="1" as="geometry">
            <mxPoint x="189.09060755565451" y="121.56647451545041" as="sourcePoint" />
            <mxPoint x="-150" y="160" as="targetPoint" />
          </mxGeometry>
        </mxCell>
        <mxCell id="9olKmMyQ2nDWpgXh6pW5-9" value="" style="endArrow=none;dashed=1;html=1;dashPattern=1 3;strokeWidth=2;rounded=0;entryX=0.567;entryY=1.05;entryDx=0;entryDy=0;entryPerimeter=0;exitX=1;exitY=0;exitDx=0;exitDy=0;" edge="1" parent="9olKmMyQ2nDWpgXh6pW5-26" target="9olKmMyQ2nDWpgXh6pW5-2">
          <mxGeometry width="50" height="50" relative="1" as="geometry">
            <mxPoint x="255.90939244434594" y="121.56647451544995" as="sourcePoint" />
            <mxPoint x="580" y="150" as="targetPoint" />
          </mxGeometry>
        </mxCell>
        <mxCell id="9olKmMyQ2nDWpgXh6pW5-10" value="" style="endArrow=none;dashed=1;html=1;dashPattern=1 3;strokeWidth=2;rounded=0;entryX=0.5;entryY=0;entryDx=0;entryDy=0;exitX=1;exitY=1;exitDx=0;exitDy=0;" edge="1" parent="9olKmMyQ2nDWpgXh6pW5-26" target="9olKmMyQ2nDWpgXh6pW5-5">
          <mxGeometry width="50" height="50" relative="1" as="geometry">
            <mxPoint x="255.90939244434594" y="178.4335254845496" as="sourcePoint" />
            <mxPoint x="590" y="130" as="targetPoint" />
          </mxGeometry>
        </mxCell>
        <mxCell id="9olKmMyQ2nDWpgXh6pW5-29" value="" style="rounded=1;whiteSpace=wrap;html=1;strokeColor=#FF0303;" vertex="1" parent="9olKmMyQ2nDWpgXh6pW5-26">
          <mxGeometry x="130" y="120" width="120" height="60" as="geometry" />
        </mxCell>
        <mxCell id="9olKmMyQ2nDWpgXh6pW5-27" value="Trusted Participants List" style="rounded=1;whiteSpace=wrap;html=1;" vertex="1" parent="9olKmMyQ2nDWpgXh6pW5-26">
          <mxGeometry x="160" y="120" width="120" height="60" as="geometry" />
        </mxCell>
        <mxCell id="9olKmMyQ2nDWpgXh6pW5-14" value="" style="endArrow=classic;html=1;rounded=0;exitX=1;exitY=0.5;exitDx=0;exitDy=0;" edge="1" parent="9olKmMyQ2nDWpgXh6pW5-28" source="9olKmMyQ2nDWpgXh6pW5-13">
          <mxGeometry width="50" height="50" relative="1" as="geometry">
            <mxPoint x="-210" y="340" as="sourcePoint" />
            <mxPoint x="130" y="150" as="targetPoint" />
          </mxGeometry>
        </mxCell>
        <mxCell id="9olKmMyQ2nDWpgXh6pW5-25" value="&amp;lt;add&amp;gt;" style="edgeLabel;html=1;align=center;verticalAlign=middle;resizable=0;points=[];" vertex="1" connectable="0" parent="9olKmMyQ2nDWpgXh6pW5-14">
          <mxGeometry x="0.0261" relative="1" as="geometry">
            <mxPoint as="offset" />
          </mxGeometry>
        </mxCell>
        <mxCell id="9olKmMyQ2nDWpgXh6pW5-11" value="Animal Goods Org." style="rounded=1;whiteSpace=wrap;html=1;" vertex="1" parent="1">
          <mxGeometry x="-70" y="170" width="120" height="60" as="geometry" />
        </mxCell>
        <mxCell id="9olKmMyQ2nDWpgXh6pW5-19" value="" style="group" vertex="1" connectable="0" parent="1">
          <mxGeometry x="-90" y="280" width="320" height="130" as="geometry" />
        </mxCell>
        <mxCell id="9olKmMyQ2nDWpgXh6pW5-15" value="&lt;div&gt;Gaia-X&lt;/div&gt;&lt;div&gt;&lt;br&gt;&lt;/div&gt;&lt;div&gt;&lt;br&gt;&lt;/div&gt;&lt;div&gt;&lt;br&gt;&lt;/div&gt;&lt;div&gt;&lt;br&gt;&lt;/div&gt;&lt;div&gt;&lt;br&gt;&lt;/div&gt;&lt;div&gt;&lt;br&gt;&lt;/div&gt;&lt;div&gt;&lt;br&gt;&lt;/div&gt;" style="rounded=0;whiteSpace=wrap;html=1;" vertex="1" parent="9olKmMyQ2nDWpgXh6pW5-19">
          <mxGeometry width="320" height="130" as="geometry" />
        </mxCell>
        <mxCell id="9olKmMyQ2nDWpgXh6pW5-16" value="Compliancy Service" style="rounded=1;whiteSpace=wrap;html=1;" vertex="1" parent="9olKmMyQ2nDWpgXh6pW5-19">
          <mxGeometry x="20" y="50" width="120" height="60" as="geometry" />
        </mxCell>
        <mxCell id="9olKmMyQ2nDWpgXh6pW5-17" value="Registry" style="rounded=1;whiteSpace=wrap;html=1;" vertex="1" parent="9olKmMyQ2nDWpgXh6pW5-19">
          <mxGeometry x="170" y="50" width="120" height="60" as="geometry" />
        </mxCell>
        <mxCell id="9olKmMyQ2nDWpgXh6pW5-18" value="" style="endArrow=none;dashed=1;html=1;dashPattern=1 3;strokeWidth=2;rounded=0;entryX=0;entryY=0.5;entryDx=0;entryDy=0;exitX=1;exitY=0.5;exitDx=0;exitDy=0;" edge="1" parent="9olKmMyQ2nDWpgXh6pW5-19" source="9olKmMyQ2nDWpgXh6pW5-16" target="9olKmMyQ2nDWpgXh6pW5-17">
          <mxGeometry width="50" height="50" relative="1" as="geometry">
            <mxPoint x="110" y="230" as="sourcePoint" />
            <mxPoint x="160" y="180" as="targetPoint" />
          </mxGeometry>
        </mxCell>
        <mxCell id="9olKmMyQ2nDWpgXh6pW5-20" value="" style="endArrow=none;dashed=1;html=1;dashPattern=1 3;strokeWidth=2;rounded=0;entryX=0.25;entryY=1;entryDx=0;entryDy=0;exitX=1;exitY=0.5;exitDx=0;exitDy=0;" edge="1" parent="1" source="9olKmMyQ2nDWpgXh6pW5-17" target="9olKmMyQ2nDWpgXh6pW5-13">
          <mxGeometry width="50" height="50" relative="1" as="geometry">
            <mxPoint x="250" y="460" as="sourcePoint" />
            <mxPoint x="300" y="410" as="targetPoint" />
            <Array as="points">
              <mxPoint x="320" y="360" />
            </Array>
          </mxGeometry>
        </mxCell>
        <mxCell id="9olKmMyQ2nDWpgXh6pW5-21" value="" style="endArrow=classic;html=1;rounded=0;exitX=0.5;exitY=1;exitDx=0;exitDy=0;" edge="1" parent="1" source="9olKmMyQ2nDWpgXh6pW5-11" target="9olKmMyQ2nDWpgXh6pW5-16">
          <mxGeometry width="50" height="50" relative="1" as="geometry">
            <mxPoint x="-150" y="280" as="sourcePoint" />
            <mxPoint x="-100" y="230" as="targetPoint" />
          </mxGeometry>
        </mxCell>
        <mxCell id="9olKmMyQ2nDWpgXh6pW5-22" value="&amp;lt;get compliancy&amp;gt;" style="edgeLabel;html=1;align=center;verticalAlign=middle;resizable=0;points=[];" vertex="1" connectable="0" parent="9olKmMyQ2nDWpgXh6pW5-21">
          <mxGeometry x="-0.44" y="-1" relative="1" as="geometry">
            <mxPoint as="offset" />
          </mxGeometry>
        </mxCell>
        <mxCell id="9olKmMyQ2nDWpgXh6pW5-23" value="" style="endArrow=classic;html=1;rounded=0;exitX=1;exitY=0.5;exitDx=0;exitDy=0;entryX=0;entryY=0.5;entryDx=0;entryDy=0;" edge="1" parent="1" source="9olKmMyQ2nDWpgXh6pW5-11" target="9olKmMyQ2nDWpgXh6pW5-13">
          <mxGeometry width="50" height="50" relative="1" as="geometry">
            <mxPoint x="140" y="170" as="sourcePoint" />
            <mxPoint x="190" y="120" as="targetPoint" />
            <Array as="points">
              <mxPoint x="110" y="200" />
              <mxPoint x="110" y="240" />
            </Array>
          </mxGeometry>
        </mxCell>
        <mxCell id="9olKmMyQ2nDWpgXh6pW5-24" value="&amp;lt;register&amp;gt;" style="edgeLabel;html=1;align=center;verticalAlign=middle;resizable=0;points=[];" vertex="1" connectable="0" parent="9olKmMyQ2nDWpgXh6pW5-23">
          <mxGeometry x="-0.05" relative="1" as="geometry">
            <mxPoint x="37" as="offset" />
          </mxGeometry>
        </mxCell>
        <mxCell id="9olKmMyQ2nDWpgXh6pW5-13" value="OnBoarding-Service" style="rounded=1;whiteSpace=wrap;html=1;" vertex="1" parent="1">
          <mxGeometry x="290" y="210" width="120" height="60" as="geometry" />
        </mxCell>
      </root>
    </mxGraphModel>
  </diagram>
</mxfile>
